<svg xmlns="http://www.w3.org/2000/svg" xmlns:svg="http://www.w3.org/2000/svg" id="Layer_1" width="100%" height="100%" x="0" y="0" enable-background="new 0 0 1000 1000" version="1.1" viewBox="0 0 507.333 456.025" xml:space="preserve"><metadata id="metadata253"/><g id="layer11" style="display:inline"><path style="fill:none;stroke:#d7191c;stroke-width:.125;stroke-linecap:butt;stroke-linejoin:round;stroke-miterlimit:4;stroke-opacity:1;stroke-dasharray:none;display:inline" id="path5419" d="m 20.500005,102.70005 19.382182,-8.516048 19.206486,-7.23324 39.921299,-6.683155 199.924788,-45.235506 0.20981,-9.656932 31.63328,-7.318655 15.75895,6.159113 16.6247,-3.715653 17.6101,6.40367 33.08565,12.273725 24.01378,13.340974 24.54741,14.408275 23.48014,17.610084 0.93479,5.96571 -21.91436,8.913292 13.55608,7.339256 2.66528,16.25817 -12.26028,5.33056 -6.68475,-1.92816 -3.70984,129.59497 -12.26028,2.93181 -17.05777,-3.99792 -143.57764,93.54604 1.64146,24.62185 -15.14949,9.78357 -20.65233,-14.90771 -19.92168,13.57874 -13.4505,-6.91742 -1.96174,-22.4403 -69.35307,-45.31654 -39.06433,-25.52531 -16.168318,-10.56466 -19.690339,3.78805 -10.32616,-6.79353 -26.767279,-147.35754 6.586539,-4.52444 -0.427282,-13.61727 -1.234247,0.29532 -17.983679,7.97417 z" transform="translate(1.6180753e-5,0)"/><path style="fill:none;stroke:#d7191c;stroke-width:.125;stroke-linecap:butt;stroke-linejoin:round;stroke-miterlimit:4;stroke-opacity:1;stroke-dasharray:none;display:inline" id="path5428" d="m 313.31092,192.6853 1.52818,61.19508 57.7803,-32.20047 1.40471,-55.12223 z" transform="translate(5.3935844e-6,0)"/></g><g id="layer10" style="display:inline"><path style="fill:none;stroke:#2b83ba;stroke-width:.125;stroke-linecap:butt;stroke-linejoin:round;stroke-miterlimit:4;stroke-opacity:1;stroke-dasharray:none" id="path5448" d="m 73.012835,165.30633 14.804697,7.72692" transform="translate(-5.3935845e-6,0)"/><path style="fill:none;stroke:#2b83ba;stroke-width:.125;stroke-linecap:butt;stroke-linejoin:round;stroke-miterlimit:4;stroke-opacity:1;stroke-dasharray:none" id="path5450" d="m 66.999903,131.01193 135.526327,65.97764 -0.22526,-2.57678 8.64634,-7.71571" transform="translate(-5.3935845e-6,0)"/><path style="fill:none;stroke:#2b83ba;stroke-width:.125;stroke-linecap:butt;stroke-linejoin:round;stroke-miterlimit:4;stroke-opacity:1;stroke-dasharray:none" id="path5452" d="m 220.54042,197.44717 -5.94185,4.26732 -12.2976,-7.3017" transform="translate(-5.3935845e-6,0)"/><path style="fill:none;stroke:#2b83ba;stroke-width:.125;stroke-linecap:butt;stroke-linejoin:round;stroke-miterlimit:4;stroke-opacity:1;stroke-dasharray:none" id="path5454" d="m 202.52623,196.98957 13.5693,155.21959" transform="translate(-5.3935845e-6,0)"/><path style="fill:none;stroke:#2b83ba;stroke-width:.125;stroke-linecap:butt;stroke-linejoin:round;stroke-miterlimit:4;stroke-opacity:1;stroke-dasharray:none" id="path5456" d="M 212.84157,314.98711 141.82625,276.21882" transform="translate(-5.3935845e-6,0)"/><path style="fill:none;stroke:#2b83ba;stroke-width:.125;stroke-linecap:butt;stroke-linejoin:round;stroke-miterlimit:4;stroke-opacity:1;stroke-dasharray:none" id="path5458" d="m 209.3356,274.88221 -73.853,-38.24348" transform="translate(-5.3935845e-6,0)"/><path style="fill:none;stroke:#2b83ba;stroke-width:.125;stroke-linecap:butt;stroke-linejoin:round;stroke-miterlimit:4;stroke-opacity:1;stroke-dasharray:none" id="path5460" d="m 205.81583,234.61948 -77.10691,-40.244" transform="translate(-5.3935845e-6,0)"/><path style="fill:none;stroke:#2b83ba;stroke-width:.125;stroke-linecap:butt;stroke-linejoin:round;stroke-miterlimit:4;stroke-opacity:1;stroke-dasharray:none" id="path5462" d="M 124.09103,98.944987 298.20596,50.07697 298.93476,35.032101" transform="translate(-5.3935845e-6,0)"/><path style="fill:none;stroke:#2b83ba;stroke-width:.125;stroke-linecap:butt;stroke-linejoin:round;stroke-miterlimit:4;stroke-opacity:1;stroke-dasharray:none" id="path5464" d="m 299.14458,25.375169 36.65541,8.3249 23.19807,-5.73623 -14.87574,-4.474485" transform="translate(-5.3935845e-6,0)"/><path style="fill:none;stroke:#2b83ba;stroke-width:.125;stroke-linecap:butt;stroke-linejoin:round;stroke-miterlimit:4;stroke-opacity:1;stroke-dasharray:none" id="path5466" d="M 359.40803,32.780895 380.7716,26.903644" transform="translate(-5.3935845e-6,0)"/><path style="fill:none;stroke:#2b83ba;stroke-width:.125;stroke-linecap:butt;stroke-linejoin:round;stroke-miterlimit:4;stroke-opacity:1;stroke-dasharray:none" id="path5468" d="M 154.50848,119.75693 323.01272,67.402728" transform="translate(-5.3935845e-6,0)"/><path style="fill:none;stroke:#2b83ba;stroke-width:.125;stroke-linecap:butt;stroke-linejoin:round;stroke-miterlimit:4;stroke-opacity:1;stroke-dasharray:none" id="path5470" d="M 175.32042,137.90067 437.87103,52.518343" transform="translate(-5.3935845e-6,0)"/><path style="fill:none;stroke:#2b83ba;stroke-width:.125;stroke-linecap:butt;stroke-linejoin:round;stroke-miterlimit:4;stroke-opacity:1;stroke-dasharray:none" id="path5472" d="M 203.60331,161.91444 462.41844,66.926618" transform="translate(-5.3935845e-6,0)"/><path style="fill:none;stroke:#2b83ba;stroke-width:.125;stroke-linecap:butt;stroke-linejoin:round;stroke-miterlimit:4;stroke-opacity:1;stroke-dasharray:none" id="path5474" d="m 298.2,50.200053 37.83734,26.230799 26.39835,-8.075339 -3.43763,-40.391674" transform="translate(-5.3935845e-6,0)"/><path style="fill:none;stroke:#2b83ba;stroke-width:.125;stroke-linecap:butt;stroke-linejoin:round;stroke-miterlimit:4;stroke-opacity:1;stroke-dasharray:none" id="path5476" d="m 335.79999,33.700069 0.23735,42.730776" transform="translate(-5.3935845e-6,0)"/><path style="fill:none;stroke:#2b83ba;stroke-width:.125;stroke-linecap:butt;stroke-linejoin:round;stroke-miterlimit:4;stroke-opacity:1;stroke-dasharray:none" id="path5478" d="m 314.82703,24.528014 20.25611,4.53097 9.86152,-2.13222 -16.25819,-5.59708 z"/><path style="fill:none;stroke:#2b83ba;stroke-width:.125;stroke-linecap:butt;stroke-linejoin:round;stroke-miterlimit:4;stroke-opacity:1;stroke-dasharray:none" id="path5480" d="M 361.35176,55.619506 413.85725,39.177369" transform="translate(-5.3935845e-6,0)"/><path style="fill:none;stroke:#2b83ba;stroke-width:.125;stroke-linecap:butt;stroke-linejoin:round;stroke-miterlimit:4;stroke-opacity:1;stroke-dasharray:none" id="path5482" d="M 224.94889,188.06277 485.89858,84.536716" transform="translate(-5.3935845e-6,0)"/><path style="fill:none;stroke:#2b83ba;stroke-width:.125;stroke-linecap:butt;stroke-linejoin:round;stroke-miterlimit:4;stroke-opacity:1;stroke-dasharray:none" id="path5484" d="M 221.8,198.30006 464.91901,99.415704" transform="translate(-5.3935845e-6,0)"/><path style="fill:none;stroke:#2b83ba;stroke-width:.125;stroke-linecap:butt;stroke-linejoin:round;stroke-miterlimit:4;stroke-opacity:1;stroke-dasharray:none" id="path5486" d="m 214.59857,201.71449 16.9092,179.85239" transform="translate(-5.3935845e-6,0)"/><path style="fill:none;stroke:#2b83ba;stroke-width:.125;stroke-linecap:butt;stroke-linejoin:round;stroke-miterlimit:4;stroke-opacity:1;stroke-dasharray:none" id="path5488" d="m 236.24457,192.42539 15.18487,175.56274" transform="translate(-5.3935845e-6,0)"/><path style="fill:none;stroke:#2b83ba;stroke-width:.125;stroke-linecap:butt;stroke-linejoin:round;stroke-miterlimit:4;stroke-opacity:1;stroke-dasharray:none" id="path5490" d="m 272.08177,382.89583 -13.288,-163.75506 13.05361,5.52965 -3.25466,-27.95183 -22.38659,-8.34529" transform="translate(-5.3935845e-6,0)"/><path style="fill:none;stroke:#2b83ba;stroke-width:.125;stroke-linecap:butt;stroke-linejoin:round;stroke-miterlimit:4;stroke-opacity:1;stroke-dasharray:none" id="path5492" d="m 237.92611,210.14602 20.86766,8.99475" transform="translate(-5.3935845e-6,0)"/><path style="fill:none;stroke:#2b83ba;stroke-width:.125;stroke-linecap:butt;stroke-linejoin:round;stroke-miterlimit:4;stroke-opacity:1;stroke-dasharray:none" id="path5494" d="m 243.10408,270.67183 20.2555,4.75418" transform="translate(-5.3935845e-6,0)"/><path style="fill:none;stroke:#2b83ba;stroke-width:.125;stroke-linecap:butt;stroke-linejoin:round;stroke-miterlimit:4;stroke-opacity:1;stroke-dasharray:none" id="path5496" d="m 248.16599,329.84116 20.09617,5.99159" transform="translate(-5.3935845e-6,0)"/><path style="fill:none;stroke:#2b83ba;stroke-width:.125;stroke-linecap:butt;stroke-linejoin:round;stroke-miterlimit:4;stroke-opacity:1;stroke-dasharray:none" id="path5498" d="m 219.78041,254.83036 21.17658,-7.92143" transform="translate(-5.3935845e-6,0)"/><path style="fill:none;stroke:#2b83ba;stroke-width:.125;stroke-linecap:butt;stroke-linejoin:round;stroke-miterlimit:4;stroke-opacity:1;stroke-dasharray:none" id="path5500" d="m 225.81742,321.04228 20.75439,-9.83568" transform="translate(-5.3935845e-6,0)"/><path style="fill:none;stroke:#2b83ba;stroke-width:.125;stroke-linecap:butt;stroke-linejoin:round;stroke-miterlimit:4;stroke-opacity:1;stroke-dasharray:none" id="path5502" d="m 266.87575,179.96631 20.16337,8.48983 5.7645,28.63035 -20.95624,7.58393" transform="translate(-5.3935845e-6,0)"/><path style="fill:none;stroke:#2b83ba;stroke-width:.125;stroke-linecap:butt;stroke-linejoin:round;stroke-miterlimit:4;stroke-opacity:1;stroke-dasharray:none" id="path5504" d="m 268.59272,196.71859 18.4464,-8.26245" transform="translate(-5.3935845e-6,0)"/><path style="fill:none;stroke:#2b83ba;stroke-width:.125;stroke-linecap:butt;stroke-linejoin:round;stroke-miterlimit:4;stroke-opacity:1;stroke-dasharray:none" id="path5506" d="m 277.21026,222.80882 8.37955,125.6816" transform="translate(-5.3935845e-6,0)"/><path style="fill:none;stroke:#2b83ba;stroke-width:.125;stroke-linecap:butt;stroke-linejoin:round;stroke-miterlimit:4;stroke-opacity:1;stroke-dasharray:none" id="path5508" d="m 289.91758,202.7525 23.39334,-10.06721" transform="translate(-5.3935845e-6,0)"/><path style="fill:none;stroke:#2b83ba;stroke-width:.125;stroke-linecap:butt;stroke-linejoin:round;stroke-miterlimit:4;stroke-opacity:1;stroke-dasharray:none" id="path5510" d="m 374.02411,166.55768 60.11482,-25.87011" transform="translate(-5.3935845e-6,0)"/><path style="fill:none;stroke:#2b83ba;stroke-width:.125;stroke-linecap:butt;stroke-linejoin:round;stroke-miterlimit:4;stroke-opacity:1;stroke-dasharray:none" id="path5512" d="m 387.35584,195.93317 45.37778,-22.94823" transform="translate(-5.3935845e-6,0)"/><path style="fill:none;stroke:#2b83ba;stroke-width:.125;stroke-linecap:butt;stroke-linejoin:round;stroke-miterlimit:4;stroke-opacity:1;stroke-dasharray:none" id="path5514" d="m 281.65164,289.41783 149.91445,-89.6" transform="translate(-5.3935845e-6,0)"/><path style="fill:none;stroke:#2b83ba;stroke-width:.125;stroke-linecap:butt;stroke-linejoin:round;stroke-miterlimit:4;stroke-opacity:1;stroke-dasharray:none" id="path5516" d="M 283.76351,321.09591 430.18683,231.51657" transform="translate(-5.3935845e-6,0)"/><path style="fill:none;stroke:#2b83ba;stroke-width:.125;stroke-linecap:butt;stroke-linejoin:round;stroke-miterlimit:4;stroke-opacity:1;stroke-dasharray:none" id="path5518" d="m 279.09932,251.1331 35.2543,-16.69294" transform="translate(-5.3935845e-6,0)"/><path style="fill:none;stroke:#2b83ba;stroke-width:.125;stroke-linecap:butt;stroke-linejoin:round;stroke-miterlimit:4;stroke-opacity:1;stroke-dasharray:none" id="path5520" d="m 314.8391,253.88037 0.38635,15.47124" transform="translate(-5.3935845e-6,0)"/><path style="fill:none;stroke:#2b83ba;stroke-width:.125;stroke-linecap:butt;stroke-linejoin:round;stroke-miterlimit:4;stroke-opacity:1;stroke-dasharray:none" id="path5522" d="m 372.6194,221.67991 13.94671,5.03322 1.70069,-66.28473" transform="translate(-5.3935845e-6,0)"/><path style="fill:none;stroke:#2b83ba;stroke-width:.125;stroke-linecap:butt;stroke-linejoin:round;stroke-miterlimit:4;stroke-opacity:1;stroke-dasharray:none" id="path5524" d="m 435.33063,111.45025 -6.16318,143.49413" transform="translate(-5.3935845e-6,0)"/><path style="fill:none;stroke:#2b83ba;stroke-width:.125;stroke-linecap:butt;stroke-linejoin:round;stroke-miterlimit:4;stroke-opacity:1;stroke-dasharray:none" id="path5526" d="m 430.79048,217.64314 17.27098,6.41053" transform="translate(-5.3935845e-6,0)"/><path style="fill:none;stroke:#2b83ba;stroke-width:.125;stroke-linecap:butt;stroke-linejoin:round;stroke-miterlimit:4;stroke-opacity:1;stroke-dasharray:none" id="path5528" d="m 433.06539,165.36021 17.66232,7.35958" transform="translate(-5.3935845e-6,0)"/><path style="fill:none;stroke:#2b83ba;stroke-width:.125;stroke-linecap:butt;stroke-linejoin:round;stroke-miterlimit:4;stroke-opacity:1;stroke-dasharray:none" id="path5530" d="m 435.09999,118.60007 27.09534,7.81547" transform="translate(-5.3935845e-6,0)"/><path style="fill:none;stroke:#2b83ba;stroke-width:.125;stroke-linecap:butt;stroke-linejoin:round;stroke-miterlimit:4;stroke-opacity:1;stroke-dasharray:none" id="path5532" d="m 453.33483,123.8598 -7.10961,135.0825" transform="translate(-5.3935845e-6,0)"/><path style="fill:none;stroke:#2b83ba;stroke-width:.125;stroke-linecap:butt;stroke-linejoin:round;stroke-miterlimit:4;stroke-opacity:1;stroke-dasharray:none" id="path5534" d="m 447.068,106.67629 18.0807,7.27492 13.32639,-7.19625" transform="translate(-5.3935845e-6,0)"/><path style="fill:none;stroke:#2b83ba;stroke-width:.125;stroke-linecap:butt;stroke-linejoin:round;stroke-miterlimit:4;stroke-opacity:1;stroke-dasharray:none" id="path5536" d="m 465.1487,113.95121 3.73138,14.39248" transform="translate(-5.3935845e-6,0)"/><path style="fill:none;stroke:#2b83ba;stroke-width:.125;stroke-linecap:butt;stroke-linejoin:round;stroke-miterlimit:4;stroke-opacity:1;stroke-dasharray:none;display:inline" id="path5438" d="m 55.538297,168.16786 16.928396,-5.97641"/><path style="fill:none;stroke:#2b83ba;stroke-width:.125;stroke-linecap:butt;stroke-linejoin:round;stroke-miterlimit:4;stroke-opacity:1;stroke-dasharray:none;display:inline" id="path5440" d="m 82.762803,220.91465 -18.13446,7.21009"/><path style="fill:none;stroke:#2b83ba;stroke-width:.125;stroke-linecap:butt;stroke-linejoin:round;stroke-miterlimit:4;stroke-opacity:1;stroke-dasharray:none;display:inline" id="path5442" d="m 86.861904,244.2936 15.423356,8.06587"/><path style="fill:none;stroke:#2b83ba;stroke-width:.125;stroke-linecap:butt;stroke-linejoin:round;stroke-miterlimit:4;stroke-opacity:1;stroke-dasharray:none;display:inline" id="path5444" d="M 107.67813,281.36729 87.817532,173.03325 99.306293,179.02953"/><path style="fill:none;stroke:#2b83ba;stroke-width:.125;stroke-linecap:butt;stroke-linejoin:round;stroke-miterlimit:4;stroke-opacity:1;stroke-dasharray:none;display:inline" id="path5446" d="m 80.334373,207.06423 14.827193,6.02872"/><path style="fill:none;stroke:#2b83ba;stroke-width:.125;stroke-linecap:butt;stroke-linejoin:round;stroke-miterlimit:4;stroke-opacity:1;stroke-dasharray:none;display:inline" id="path5436" d="m 40.885291,102.29792 19.366569,-4.636927 18.431613,-5.018161 18.916529,1.75722 21.604368,14.812098 30.13013,21.68389 19.7775,16.67772 30.68425,27.20132 L 221.8,198.30006 224.94889,188.06277 203.60331,161.91444 175.32042,137.90067 154.50848,119.75693 124.09103,98.944987 99.00976,80.267641"/><path style="fill:none;stroke:#2b83ba;stroke-width:.125;stroke-linecap:butt;stroke-linejoin:miter;stroke-miterlimit:4;stroke-opacity:1;stroke-dasharray:none" id="path5596" d="M 146.74247,306.89259 128.70892,194.37547 99.306293,179.02952" transform="translate(-5.3935845e-6,0)"/><path style="color:#000;fill:#fff;fill-opacity:1;fill-rule:nonzero;stroke:#2b83ba;stroke-width:.79616398;stroke-linecap:round;stroke-linejoin:round;stroke-miterlimit:4;stroke-opacity:1;stroke-dasharray:none;stroke-dashoffset:0;marker:none;visibility:visible;display:inline;overflow:visible;enable-background:accumulate" id="path5598" d="m 185.94318,267.25742 a 28.479904,24.949337 0 1 1 -56.95981,0 28.479904,24.949337 0 1 1 56.95981,0 z" transform="matrix(0.10841013,-0.03029755,0.0552805,0.21192694,98.500252,200.83246)"/><path style="fill:none;stroke:#2b83ba;stroke-width:.125;stroke-linecap:butt;stroke-linejoin:round;stroke-miterlimit:4;stroke-opacity:1;stroke-dasharray:none;display:inline" id="path5430" d="m 34.726034,120.43963 14.138166,4.1026 22.955269,150.04845" transform="translate(1.0787169e-5,0)"/><path style="fill:none;stroke:#2b83ba;stroke-width:.125;stroke-linecap:butt;stroke-linejoin:round;stroke-miterlimit:4;stroke-opacity:1;stroke-dasharray:none;display:inline" id="path5432" d="M 48.623624,124.70927 64.020473,114.01897 52.514964,108.22 41.312574,115.91519" transform="translate(1.0787169e-5,0)"/><path style="fill:none;stroke:#2b83ba;stroke-width:.125;stroke-linecap:butt;stroke-linejoin:round;stroke-miterlimit:4;stroke-opacity:1;stroke-dasharray:none;display:inline" id="path5434" d="M 64.020473,114.01897 91.509811,270.80264" transform="translate(1.0787169e-5,0)"/></g></svg>